Simulation
nRows=46
nColumns=15
endheader
time  TH_x TH_y TH_z SC_y  SC_z  SC_x  AC_y  AC_z  AC_x  GH_y  GH_z  GH_yy  EL_x  PS_y
2.6548872180451126  0.000000  0.000000  0.000000  -20.773382710437094  11.357797113681995  16.598316986026642  54.95344376439684  12.90042961336702  10.566258555618536  32.61643297695563  63.07450702635246  -20.848576737989074  38.037763920957914  120.000000
2.695112781954887  0.000000  0.000000  0.000000  -20.962145549273835  11.609956017924748  17.012826300075957  55.12256313873131  12.651423726472915  10.801578239660333  32.60630053504007  63.32626172242449  -18.774835306062283  37.49792116101798  120.000000
2.7353383458646614  0.000000  0.000000  0.000000  -21.144886600625494  11.848420240318031  17.37857422198579  55.29467039717592  12.428695577343603  11.037503538201461  32.6038489204395  63.53885129953668  -16.736780631267308  36.97734117358397  120.000000
2.7755639097744362  0.000000  0.000000  0.000000  -21.319391551920216  12.07223478061911  17.700176502771548  55.46951493260758  12.230742560048828  11.272312822700298  32.61307861062941  63.71866821679015  -14.75045176809229  36.47945464325175  120.000000
2.8157894736842106  0.000000  0.000000  0.000000  -21.483524320669158  12.280278774405973  17.981955803819982  55.64629319993605  12.056007005944858  11.503748550914699  32.6373361688602  63.87034901471491  -12.833941533040017  36.007901713866566  120.000000
2.856015037593985  0.000000  0.000000  0.000000  -21.635441280714563  12.471485976555307  18.227725328280282  55.823307975017634  11.902771769437804  11.728921063722444  32.67890164572731  63.99658232025813  -11.008322682280038  35.566812515508616  120.000000
2.8962406015037594  0.000000  0.000000  0.000000  -21.7734213377236  12.64457198176293  18.44069311082227  55.9980978865167  11.76940195655825  11.944094937929837  32.738661976049656  64.09818442027527  -9.29877547401659  35.16057479775318  120.000000
2.936466165413534  0.000000  0.000000  0.000000  -21.895697442555868  12.797974065242197  18.62340875181581  56.16732798061682  11.654381986960265  12.144739237255385  32.81626121174233  64.1746914893682  -7.733322089955096  34.793620938929124  120.000000
2.976691729323308  0.000000  0.000000  0.000000  -22.00051796867254  12.93012285476648  18.777792810153805  56.32692967360139  11.55626880205851  12.325709468999815  32.910396006567964  64.2248897969175  -6.341446708325409  34.470482095332606  120.000000
3.0169172932330826  0.000000  0.000000  0.000000  -22.086078368063927  13.039420323656572  18.905143830785534  56.47242075774286  11.473577507046631  12.481590111549515  33.01911052761757  64.2472533160183  -5.1536837647657086  34.1957617321351  120.000000
3.057142857142857  0.000000  0.000000  0.000000  -22.15049143311317  13.124199835912032  19.00630802789529  56.59925458616744  11.405006822311933  12.606826312646866  33.14005414008207  64.24011603741967  -4.2013897489638055  33.973931810534125  120.000000
3.0973684210526313  0.000000  0.000000  0.000000  -22.191933346737635  13.182860655183715  19.081778428507672  56.702978242983285  11.349339442203515  12.696134816714123  33.27053443735435  64.2017164200664  -3.516563667077864  33.80948411028794  120.000000
3.137593984962406  0.000000  0.000000  0.000000  -22.20879261290724  13.213943175397237  19.13188511875656  56.779433300744394  11.305639371631761  12.744650316787475  33.40747927355903  64.12985298034843  -3.132182638427608  33.706959005836964  120.000000
3.1778195488721805  0.000000  0.000000  0.000000  -22.199659455162365  13.215973100366767  19.156842825975612  56.82494407567678  11.273332722657244  12.748137045998874  33.54712558966915  64.02150011246124  -3.0824339128065352  33.67096449040225  120.000000
3.218045112781955  0.000000  0.000000  0.000000  -22.16355650064795  13.187519976112476  19.156812302418945  56.83638096698841  11.25239106392639  12.703085481936593  33.68482165317511  63.8722651840427  -3.4025492019990735  33.70659813615784  120.000000
3.2582706766917293  0.000000  0.000000  0.000000  -22.100095739962562  13.127458227154754  19.13181638962143  56.810988313398255  11.243356485611224  12.607046875925459  33.815017320952784  63.67615302367134  -4.127321753825284  33.819709847115575  120.000000
3.2984962406015037  0.000000  0.000000  0.000000  -22.00938085733291  13.034672088720974  19.0816959977271  56.746942540802195  11.247586002388772  12.458671024993048  33.931316203262845  63.42562920507285  -5.289781580609037  34.01628963229242  120.000000
3.338721804511278  0.000000  0.000000  0.000000  -21.89224784316455  12.908111190768537  19.00619221694027  56.64328024648842  11.267264317187625  12.257839747439592  34.02781660903808  63.112646274072986  -6.915589007773299  34.300750524034264  120.000000
3.3789473684210525  0.000000  0.000000  0.000000  -21.75064098151214  12.747722786908948  18.90492191780985  56.499988691075444  11.305111053700891  12.006122491189624  34.10059867786653  62.72992661580671  -9.016078305441688  34.67344106796178  120.000000
3.419172932330827  0.000000  0.000000  0.000000  -21.587436170266766  12.554349944621132  18.777169608771008  56.318444400430174  11.364072341913461  11.707061177030557  34.148587476561936  62.272150506037626  -11.583139525852047  35.12822488895008  120.000000
3.4593984962406013  0.000000  0.000000  0.000000  -21.406450551160344  12.32979029520884  18.621792633014763  56.10143231484815  11.446992987095001  11.365797934583501  34.17351807654518  61.73686206794284  -14.586906649487078  35.65221345094693  120.000000
3.499624060150376  0.000000  0.000000  0.000000  -21.212519031087236  12.077048863396092  18.437166885243123  55.8529057688601  11.556085983689464  10.988665211954483  34.17902687626369  61.12482049873252  -17.97867213922723  36.22731496103963  120.000000
3.5398496240601505  0.000000  0.000000  0.000000  -21.010493699143087  11.798889692688828  18.2214444181675  55.578228177749935  11.69347928495415  10.582279316587208  34.16914335637546  60.43981052986804  -21.694777627353105  36.831462469651115  120.000000
3.580075187969925  0.000000  0.000000  0.000000  -20.80441711154281  11.49723320875609  17.97267128169112  55.28385340670652  11.861029980497811  10.153078576548227  34.14740335815425  59.68814684755401  -25.66014376838792  37.44060194296528  120.000000
3.6203007518796992  0.000000  0.000000  0.000000  -20.5978300643263  11.173546073671204  17.688874922880977  54.97729888879584  12.059568977290194  9.706955835432728  34.116669550235  58.87785551808306  -29.793286654525886  38.03056300206186  120.000000
3.6605263157894736  0.000000  0.000000  0.000000  -20.393732343013692  10.828860577335123  17.368299345936634  54.667053316666774  12.288487314713143  9.248747462342193  34.07883031974664  58.018050465317764  -34.009813973954394  38.57757267593374  120.000000
3.700751879699248  0.000000  0.000000  0.000000  -20.194692460582228  10.463990065437478  17.009937554789765  54.36241830320194  12.545263954697054  8.781908229045214  34.03445694192244  57.11860546778577  -38.22389855376895  39.058190277773065  120.000000
3.7409774436090224  0.000000  0.000000  0.000000  -20.003448449003663  10.079686978707725  16.613923574230686  54.073422469671016  12.825258607113135  8.308351665496014  33.982753106518295  56.19017664324976  -42.34885231456451  39.44890884193764  120.000000
3.781203007518797  0.000000  0.000000  0.000000  -19.822832474195415  9.676931563923727  16.18131098711121  53.810211161573655  13.121932323632102  7.828811804383877  33.92115150182422  55.24428637437314  -46.29764248660735  39.72536181243446  120.000000
3.821428571428571  0.000000  0.000000  0.000000  -19.655545660008233  9.25716072013032  15.713817530671163  53.5825276956157  13.427534826078936  7.3433857083161715  33.84489888746089  54.293120740296764  -49.98405596298555  39.861663626961736  120.000000
3.8616541353383456  0.000000  0.000000  0.000000  -19.504331048383555  8.821962739904674  15.213830288578068  53.39949800711686  13.733729134925714  6.851865832081816  33.74736612392533  53.34909805842904  -53.3260458660818  39.83200286183389  120.000000
3.9018796992481204  0.000000  0.000000  0.000000  -19.372068721692457  8.372760584440416  14.6843218574876  53.26932916875393  14.032004364608163  6.354033715143534  33.621196614427554  52.42411293891447  -56.251933971682234  39.615067515129596  120.000000
3.942105263157895  0.000000  0.000000  0.000000  -19.261407212457893  7.911065531911164  14.128425486854496  53.19833114038432  14.314042585964897  5.85044591631124  33.45995216691012  51.528517932312816  -58.70722804628901  39.19944902133131  120.000000
3.982330827067669  0.000000  0.000000  0.000000  -19.174306327542745  7.438836273208778  13.54919160006953  53.18993273517075  14.572310248122772  5.343132458035255  33.25944265885846  50.670299197094195  -60.65982193228942  38.58731595564313  120.000000
4.022556390977443  0.000000  0.000000  0.000000  -19.112245808802896  6.958808784794484  12.949648885025837  53.243962782133266  14.800650095243105  4.836014619810978  33.01877228256453  49.85475599925397  -62.10274144766133  37.795400071516035  120.000000
4.062781954887218  0.000000  0.000000  0.000000  -19.0763216124625  6.474845266639955  12.332871947868146  53.35632083987479  14.994810710667133  4.334966102992162  32.74047363541517  49.08455065462841  -63.05329144933252  36.85369426392361  120.000000
4.103007518796993  0.000000  0.000000  0.000000  -19.06665258574351  5.9919097643154275  11.702074285611493  53.51903689106581  15.152803710513446  3.8476915342402576  32.43004886908511  48.36019280108185  -63.54811106105332  35.80146508735094  120.000000
4.143233082706767  0.000000  0.000000  0.000000  -19.0824279822634  5.516186525832288  11.060636852055215  53.72146381762051  15.274616767063964  3.3832731425814613  32.09603793295833  47.68091775242888  -63.6368428700099  34.68278778184844  120.000000
4.1834586466165415  0.000000  0.000000  0.000000  -19.121917690007194  5.054730689630278  10.412023171561511  53.95168465618176  15.361655962922487  2.95121332609101  31.74999940351568  47.04549379845549  -63.376676879029574  33.543342657937586  120.000000
4.223684210526316  0.000000  0.000000  0.000000  -19.181707332954364  4.614804561339533  9.759942197740946  54.196938253527264  15.416825209794375  2.5608967920669343  31.405046618355552  46.452117192984595  -62.82884887181281  32.426650844604254  120.000000
4.26390977443609  0.000000  0.000000  0.000000  -19.257269890606  4.204112039042462  9.108172970935305  54.44403462667026  15.444894759832264  2.2212888226021463  31.07347663425555  45.89758532809234  -62.05603445215296  31.373779132642355  120.000000
4.304135338345865  0.000000  0.000000  0.000000  -19.344335601109556  3.829610192503975  8.460620336501277  54.68109489616736  15.453101867716544  1.9393575124449476  30.765247957517982  45.37692690441371  -61.12044943742324  30.426987243433636  120.000000
4.344360902255639  0.000000  0.000000  0.000000  -19.438791932199834  3.49616301241726  7.821673209741971  54.89866604728999  15.450418500349535  1.7191226182989245  30.488478291109235  44.88422010305135  -60.08391028227668  29.630768161623713  120.000000
4.3845864661654135  0.000000  0.000000  0.000000  -19.536551724611122  3.2072049538167713  7.196048147874152  55.08986658287644  15.445889724013375  1.5620921639611882  30.250693708619657  44.413180084678466  -59.007965956169  29.030590440376688  120.000000
4.424812030075188  0.000000  0.000000  0.000000  -19.63424454541201  2.9650816709322396  6.588429180751178  55.25034127342901  15.447516474765436  1.4675774095494794  30.0590572511625  43.95780826198467  -57.95140447946962  28.67052675966627  120.000000
4.465037593984962  0.000000  0.000000  0.000000  -19.7295667711103  2.771137440440423  6.003291883389568  55.3779173155466  15.46161477934937  1.4329429981629351  29.920263616902727  43.51337719537542  -56.966830773685516  28.58833142756948  120.000000
